<svg xmlns="http://www.w3.org/2000/svg" viewBox="0 0 760 520" fill="none">
  <defs>
    <linearGradient id="steel" x1="196" y1="68" x2="452" y2="382" gradientUnits="userSpaceOnUse">
      <stop stop-color="#F8FBFF"/>
      <stop offset="0.42" stop-color="#B8C9EF"/>
      <stop offset="1" stop-color="#ECF3FF"/>
    </linearGradient>
    <linearGradient id="blue" x1="416" y1="70" x2="266" y2="380" gradientUnits="userSpaceOnUse">
      <stop stop-color="#8FB1FF"/>
      <stop offset="1" stop-color="#2850B0"/>
    </linearGradient>
    <linearGradient id="jaw" x1="204" y1="344" x2="304" y2="454" gradientUnits="userSpaceOnUse">
      <stop stop-color="#FFFFFF"/>
      <stop offset="0.52" stop-color="#CBD9FA"/>
      <stop offset="1" stop-color="#F4F7FF"/>
    </linearGradient>
    <filter id="softShadow" x="62" y="-4" width="610" height="546" filterUnits="userSpaceOnUse" color-interpolation-filters="sRGB">
      <feDropShadow dx="0" dy="24" stdDeviation="18" flood-color="#00133F" flood-opacity="0.38"/>
      <feDropShadow dx="0" dy="2" stdDeviation="2" flood-color="#FFFFFF" flood-opacity="0.22"/>
    </filter>
  </defs>

  <g filter="url(#softShadow)">
    <path d="M472 31H694" stroke="rgba(255,255,255,.30)" stroke-width="30" stroke-linecap="round"/>
    <path d="M504 31H662" stroke="#9DB9FF" stroke-opacity=".58" stroke-width="8" stroke-linecap="round"/>
    <circle cx="523" cy="31" r="5" fill="#F8FBFF" fill-opacity=".82"/>
    <circle cx="582" cy="31" r="5" fill="#F8FBFF" fill-opacity=".82"/>
    <circle cx="641" cy="31" r="5" fill="#F8FBFF" fill-opacity=".82"/>

    <path d="M590 56C548 92 510 113 458 139C402 167 365 208 332 276C318 306 304 337 283 371"
      stroke="#DCE7FF" stroke-opacity=".45" stroke-width="5" stroke-linecap="round" stroke-dasharray="11 13"/>
    <path d="M617 58C574 101 540 126 486 157C433 188 388 244 349 326"
      stroke="#7FA5FF" stroke-opacity=".26" stroke-width="3" stroke-linecap="round"/>

    <g>
      <circle cx="538" cy="78" r="55" fill="#FFFFFF" fill-opacity=".11" stroke="#EEF4FF" stroke-opacity=".84" stroke-width="11"/>
      <circle cx="538" cy="78" r="28" fill="#2850B0" fill-opacity=".58" stroke="#BFD0FF" stroke-width="6"/>
      <circle cx="516" cy="56" r="4.5" fill="#FFFFFF" fill-opacity=".82"/>
      <circle cx="560" cy="56" r="4.5" fill="#FFFFFF" fill-opacity=".82"/>
      <circle cx="516" cy="100" r="4.5" fill="#FFFFFF" fill-opacity=".82"/>
      <circle cx="560" cy="100" r="4.5" fill="#FFFFFF" fill-opacity=".82"/>
    </g>

    <path d="M505 113C459 144 423 175 381 219" stroke="url(#steel)" stroke-width="44" stroke-linecap="round"/>
    <path d="M502 108C459 138 423 169 384 210" stroke="#FFFFFF" stroke-opacity=".40" stroke-width="10" stroke-linecap="round"/>
    <path d="M484 134C451 159 425 186 394 219" stroke="url(#blue)" stroke-width="8" stroke-linecap="round"/>

    <path d="M486 153C445 188 416 233 398 289" stroke="#EDF4FF" stroke-opacity=".82" stroke-width="10" stroke-linecap="round"/>
    <path d="M458 176C430 207 410 244 397 289" stroke="#315FDB" stroke-opacity=".90" stroke-width="5" stroke-linecap="round"/>
    <circle cx="486" cy="153" r="11" fill="#E7EEFF" stroke="#FFFFFF" stroke-opacity=".82" stroke-width="3"/>
    <circle cx="398" cy="289" r="11" fill="#E7EEFF" stroke="#FFFFFF" stroke-opacity=".82" stroke-width="3"/>

    <g>
      <circle cx="372" cy="226" r="48" fill="#FFFFFF" fill-opacity=".12" stroke="#EEF4FF" stroke-opacity=".82" stroke-width="10"/>
      <circle cx="372" cy="226" r="22" fill="#082058" fill-opacity=".62" stroke="#9DB9FF" stroke-width="7"/>
      <path d="M336 226H408M372 190V262" stroke="#FFFFFF" stroke-opacity=".16" stroke-width="4" stroke-linecap="round"/>
      <circle cx="348" cy="202" r="4" fill="#F8FBFF" fill-opacity=".72"/>
      <circle cx="396" cy="202" r="4" fill="#F8FBFF" fill-opacity=".72"/>
      <circle cx="348" cy="250" r="4" fill="#F8FBFF" fill-opacity=".72"/>
      <circle cx="396" cy="250" r="4" fill="#F8FBFF" fill-opacity=".72"/>
    </g>

    <path d="M347 257C312 293 292 337 273 389" stroke="url(#steel)" stroke-width="40" stroke-linecap="round"/>
    <path d="M343 253C312 287 294 327 278 377" stroke="#FFFFFF" stroke-opacity=".38" stroke-width="9" stroke-linecap="round"/>
    <path d="M324 277C303 310 290 344 280 379" stroke="url(#blue)" stroke-width="8" stroke-linecap="round"/>

    <g>
      <circle cx="267" cy="398" r="34" fill="#FFFFFF" fill-opacity=".12" stroke="#EEF4FF" stroke-opacity=".82" stroke-width="9"/>
      <circle cx="267" cy="398" r="14" fill="#2850B0" fill-opacity=".78"/>
      <path d="M244 421H290" stroke="#FFFFFF" stroke-opacity=".70" stroke-width="8" stroke-linecap="round"/>
    </g>

    <g>
      <rect x="225" y="416" width="84" height="40" rx="15" fill="#DDE7FF" stroke="#FFFFFF" stroke-opacity=".82" stroke-width="5"/>
      <path d="M243 450C211 468 202 499 218 519C235 506 246 488 251 466" stroke="url(#jaw)" stroke-width="13" stroke-linecap="round" stroke-linejoin="round"/>
      <path d="M291 450C323 468 332 499 316 519C299 506 288 488 283 466" stroke="url(#jaw)" stroke-width="13" stroke-linecap="round" stroke-linejoin="round"/>
      <path d="M247 474H287" stroke="#8FB1FF" stroke-opacity=".84" stroke-width="7" stroke-linecap="round"/>
      <circle cx="245" cy="436" r="4" fill="#2850B0" fill-opacity=".65"/>
      <circle cx="289" cy="436" r="4" fill="#2850B0" fill-opacity=".65"/>
    </g>
  </g>
</svg>
